<svg xmlns="http://www.w3.org/2000/svg" width="16.923" height="16.924" viewBox="0 0 16.923 16.924">
  <path id="Trazado_24713" data-name="Trazado 24713" d="M18.077,5.384H13.846V3.971A2.048,2.048,0,0,0,11.731,2H9.192A2.048,2.048,0,0,0,7.077,3.971V5.384H2.846a.846.846,0,1,0,0,1.692h.846v9.308a2.538,2.538,0,0,0,2.538,2.538h8.462a2.538,2.538,0,0,0,2.538-2.538V7.077h.846a.846.846,0,1,0,0-1.692ZM8.769,13.846a.846.846,0,0,1-1.692,0V10.461a.846.846,0,0,1,1.692,0Zm0-9.875c0-.135.178-.279.423-.279h2.538c.245,0,.423.144.423.279V5.384H8.769Zm5.077,9.875a.846.846,0,0,1-1.692,0V10.461a.846.846,0,0,1,1.692,0Z" transform="translate(-2 -1.999)" fill="#ff0101"/>
</svg>
