<svg xmlns="http://www.w3.org/2000/svg" width="13.542" height="16.874" viewBox="0 0 13.542 16.874">
  <path id="Unión_35" data-name="Unión 35" d="M.85,16.874a.846.846,0,1,1,0-1.692H12.7a.846.846,0,1,1,0,1.692Zm-.6-3.63A.842.842,0,0,1,0,12.567L.367,9.039A1.693,1.693,0,0,1,.85,8.015L8.465.4a1.692,1.692,0,0,1,2.25.059l2.319,2.319a1.625,1.625,0,0,1,.059,2.293L5.478,12.686a1.692,1.692,0,0,1-1.024.482l-3.528.321H.844A.845.845,0,0,1,.249,13.244ZM7.89,3.336,10.157,5.6l1.692-1.65L9.54,1.644Z" fill="#1dd52f"/>
</svg>
