<svg xmlns="http://www.w3.org/2000/svg" width="31.002" height="29" viewBox="0 0 31.002 29"><defs><style>.a{fill:#fff;}</style></defs><path class="a" d="M-4470.177-802a1.818,1.818,0,0,1-1.823-1.812v-25.375a1.818,1.818,0,0,1,1.823-1.812h3.647a1.819,1.819,0,0,1,1.823,1.813,1.819,1.819,0,0,1-1.823,1.813h-1.823v21.75h1.823a1.819,1.819,0,0,1,1.823,1.813,1.819,1.819,0,0,1-1.823,1.813Zm20.788-5.8a1.8,1.8,0,0,1-.364-2.537l3.28-4.351h-14.587a1.818,1.818,0,0,1-1.823-1.812,1.818,1.818,0,0,1,1.823-1.812h14.75l-3.135-4.386a1.809,1.809,0,0,1-.313-1.359,1.8,1.8,0,0,1,.752-1.178,1.829,1.829,0,0,1,2.533.433l5.144,7.25a1.809,1.809,0,0,1-.038,2.14l-5.47,7.25a1.827,1.827,0,0,1-1.459.724A1.824,1.824,0,0,1-4449.389-807.8Z" transform="translate(4472 831)"/></svg>